<mxfile host="app.diagrams.net" modified="2023-10-14T23:32:48.325Z" agent="Mozilla/5.0 (Windows NT 10.0; Win64; x64) AppleWebKit/537.36 (KHTML, like Gecko) Chrome/118.0.0.0 Safari/537.36" etag="3o9wfb4nqlEfd9hKLUJU" version="22.0.4" type="device">
  <diagram name="PÃ¡gina-1" id="2h6BVpUbpn3eaQ8Mzutt">
    <mxGraphModel dx="2367" dy="1240" grid="1" gridSize="10" guides="1" tooltips="1" connect="1" arrows="1" fold="1" page="1" pageScale="1" pageWidth="827" pageHeight="1169" math="0" shadow="0">
      <root>
        <mxCell id="0" />
        <mxCell id="1" parent="0" />
        <mxCell id="bfvBG_LsfSfWpUa8G1N8-1" value="" style="whiteSpace=wrap;html=1;aspect=fixed;fillColor=#0d1117;" parent="1" vertex="1">
          <mxGeometry x="240" y="190" width="1173.34" height="660" as="geometry" />
        </mxCell>
        <mxCell id="bfvBG_LsfSfWpUa8G1N8-2" value="" style="rounded=0;whiteSpace=wrap;html=1;fillColor=#0d1117;aspect=fixed;" parent="1" vertex="1">
          <mxGeometry x="996" y="220" width="417.35" height="630" as="geometry" />
        </mxCell>
        <mxCell id="bfvBG_LsfSfWpUa8G1N8-6" value="" style="endArrow=none;html=1;rounded=0;exitX=0.153;exitY=1;exitDx=0;exitDy=0;exitPerimeter=0;" parent="1" edge="1">
          <mxGeometry width="50" height="50" relative="1" as="geometry">
            <mxPoint x="480.00102000000015" y="850" as="sourcePoint" />
            <mxPoint x="481" y="190" as="targetPoint" />
          </mxGeometry>
        </mxCell>
        <mxCell id="bfvBG_LsfSfWpUa8G1N8-7" value="" style="rounded=0;whiteSpace=wrap;html=1;" parent="1" vertex="1">
          <mxGeometry x="240" y="190" width="50" height="50" as="geometry" />
        </mxCell>
        <mxCell id="bfvBG_LsfSfWpUa8G1N8-12" value="" style="shape=image;html=1;verticalAlign=top;verticalLabelPosition=bottom;labelBackgroundColor=#ffffff;imageAspect=0;aspect=fixed;image=https://cdn2.iconfinder.com/data/icons/vivid/48/menu-128.png" parent="1" vertex="1">
          <mxGeometry x="240" y="190" width="50" height="50" as="geometry" />
        </mxCell>
        <mxCell id="bfvBG_LsfSfWpUa8G1N8-34" value="" style="html=1;shadow=0;dashed=0;shape=mxgraph.bootstrap.rrect;rSize=5;strokeColor=#DFDFDF;html=1;whiteSpace=wrap;fillColor=#FFFFFF;fontColor=#000000;" parent="1" vertex="1">
          <mxGeometry x="250" y="675" width="200" height="150" as="geometry" />
        </mxCell>
        <mxCell id="bfvBG_LsfSfWpUa8G1N8-35" value="Cras justo odio" style="html=1;shadow=0;dashed=0;shape=mxgraph.bootstrap.topButton;rSize=5;strokeColor=none;fillColor=#0085FC;fontColor=#ffffff;perimeter=none;whiteSpace=wrap;resizeWidth=1;align=left;spacing=10;" parent="bfvBG_LsfSfWpUa8G1N8-34" vertex="1">
          <mxGeometry width="200" height="30" relative="1" as="geometry" />
        </mxCell>
        <mxCell id="bfvBG_LsfSfWpUa8G1N8-36" value="Dapibus ac facilisis in" style="strokeColor=inherit;fillColor=inherit;gradientColor=inherit;fontColor=inherit;html=1;shadow=0;dashed=0;perimeter=none;whiteSpace=wrap;resizeWidth=1;align=left;spacing=10;" parent="bfvBG_LsfSfWpUa8G1N8-34" vertex="1">
          <mxGeometry width="200" height="30" relative="1" as="geometry">
            <mxPoint y="30" as="offset" />
          </mxGeometry>
        </mxCell>
        <mxCell id="bfvBG_LsfSfWpUa8G1N8-37" value="Morbi leo risus" style="strokeColor=inherit;fillColor=inherit;gradientColor=inherit;fontColor=inherit;html=1;shadow=0;dashed=0;perimeter=none;whiteSpace=wrap;resizeWidth=1;align=left;spacing=10;" parent="bfvBG_LsfSfWpUa8G1N8-34" vertex="1">
          <mxGeometry width="200" height="30" relative="1" as="geometry">
            <mxPoint y="60" as="offset" />
          </mxGeometry>
        </mxCell>
        <mxCell id="bfvBG_LsfSfWpUa8G1N8-38" value="Porta ac consectetur ac" style="strokeColor=inherit;fillColor=inherit;gradientColor=inherit;fontColor=inherit;html=1;shadow=0;dashed=0;perimeter=none;whiteSpace=wrap;resizeWidth=1;align=left;spacing=10;" parent="bfvBG_LsfSfWpUa8G1N8-34" vertex="1">
          <mxGeometry width="200" height="30" relative="1" as="geometry">
            <mxPoint y="90" as="offset" />
          </mxGeometry>
        </mxCell>
        <mxCell id="bfvBG_LsfSfWpUa8G1N8-39" value="Vestibulum at eros" style="strokeColor=inherit;fillColor=inherit;gradientColor=inherit;fontColor=inherit;html=1;shadow=0;dashed=0;shape=mxgraph.bootstrap.bottomButton;rSize=5;perimeter=none;whiteSpace=wrap;resizeWidth=1;resizeHeight=0;align=left;spacing=10;" parent="bfvBG_LsfSfWpUa8G1N8-34" vertex="1">
          <mxGeometry y="1" width="200" height="30" relative="1" as="geometry">
            <mxPoint y="-30" as="offset" />
          </mxGeometry>
        </mxCell>
        <mxCell id="bfvBG_LsfSfWpUa8G1N8-40" value="" style="html=1;shadow=0;dashed=0;shape=mxgraph.bootstrap.rrect;rSize=5;strokeColor=#DFDFDF;html=1;whiteSpace=wrap;fillColor=#FFFFFF;fontColor=#000000;" parent="1" vertex="1">
          <mxGeometry x="250" y="675" width="220" height="150" as="geometry" />
        </mxCell>
        <mxCell id="bfvBG_LsfSfWpUa8G1N8-41" value="Budget List" style="html=1;shadow=0;dashed=0;shape=mxgraph.bootstrap.topButton;rSize=5;strokeColor=none;fillColor=#0085FC;fontColor=#ffffff;perimeter=none;whiteSpace=wrap;resizeWidth=1;align=left;spacing=10;" parent="bfvBG_LsfSfWpUa8G1N8-40" vertex="1">
          <mxGeometry width="220.00000000000003" height="30" relative="1" as="geometry" />
        </mxCell>
        <mxCell id="bfvBG_LsfSfWpUa8G1N8-42" value="Budget 001.pdf" style="strokeColor=inherit;fillColor=inherit;gradientColor=inherit;fontColor=inherit;html=1;shadow=0;dashed=0;perimeter=none;whiteSpace=wrap;resizeWidth=1;align=left;spacing=10;" parent="bfvBG_LsfSfWpUa8G1N8-40" vertex="1">
          <mxGeometry width="220.00000000000003" height="30" relative="1" as="geometry">
            <mxPoint y="30" as="offset" />
          </mxGeometry>
        </mxCell>
        <mxCell id="bfvBG_LsfSfWpUa8G1N8-43" value="Budget 002.pdf" style="strokeColor=inherit;fillColor=inherit;gradientColor=inherit;fontColor=inherit;html=1;shadow=0;dashed=0;perimeter=none;whiteSpace=wrap;resizeWidth=1;align=left;spacing=10;" parent="bfvBG_LsfSfWpUa8G1N8-40" vertex="1">
          <mxGeometry width="220.00000000000003" height="30" relative="1" as="geometry">
            <mxPoint y="60" as="offset" />
          </mxGeometry>
        </mxCell>
        <mxCell id="bfvBG_LsfSfWpUa8G1N8-44" value="Budget 003.pdf" style="strokeColor=inherit;fillColor=inherit;gradientColor=inherit;fontColor=inherit;html=1;shadow=0;dashed=0;perimeter=none;whiteSpace=wrap;resizeWidth=1;align=left;spacing=10;" parent="bfvBG_LsfSfWpUa8G1N8-40" vertex="1">
          <mxGeometry width="220.00000000000003" height="30" relative="1" as="geometry">
            <mxPoint y="90" as="offset" />
          </mxGeometry>
        </mxCell>
        <mxCell id="bfvBG_LsfSfWpUa8G1N8-45" value="Budget 004.pdf" style="strokeColor=inherit;fillColor=inherit;gradientColor=inherit;fontColor=inherit;html=1;shadow=0;dashed=0;shape=mxgraph.bootstrap.bottomButton;rSize=5;perimeter=none;whiteSpace=wrap;resizeWidth=1;resizeHeight=0;align=left;spacing=10;" parent="bfvBG_LsfSfWpUa8G1N8-40" vertex="1">
          <mxGeometry y="1" width="220.00000000000003" height="30" relative="1" as="geometry">
            <mxPoint y="-30" as="offset" />
          </mxGeometry>
        </mxCell>
        <mxCell id="bfvBG_LsfSfWpUa8G1N8-81" value="" style="html=1;shadow=0;dashed=0;shape=mxgraph.bootstrap.rrect;rSize=5;strokeColor=#DFDFDF;html=1;whiteSpace=wrap;fillColor=#FFFFFF;fontColor=#000000;" parent="1" vertex="1">
          <mxGeometry x="250" y="370" width="220" height="120" as="geometry" />
        </mxCell>
        <mxCell id="bfvBG_LsfSfWpUa8G1N8-82" value="Client 01 Name" style="strokeColor=inherit;fillColor=inherit;gradientColor=inherit;fontColor=inherit;html=1;shadow=0;dashed=0;shape=mxgraph.bootstrap.topButton;rSize=5;perimeter=none;whiteSpace=wrap;resizeWidth=1;align=left;spacing=10;" parent="bfvBG_LsfSfWpUa8G1N8-81" vertex="1">
          <mxGeometry width="220" height="43" relative="1" as="geometry" />
        </mxCell>
        <mxCell id="bfvBG_LsfSfWpUa8G1N8-83" value="14" style="strokeColor=inherit;fillColor=inherit;gradientColor=inherit;fontColor=inherit;html=1;shadow=0;dashed=0;shape=mxgraph.bootstrap.rrect;rSize=8;fillColor=#0085FC;strokeColor=none;fontColor=#ffffff;whiteSpace=wrap;" parent="bfvBG_LsfSfWpUa8G1N8-82" vertex="1">
          <mxGeometry x="1" y="0.5" width="25" height="16" relative="1" as="geometry">
            <mxPoint x="-69" y="-6" as="offset" />
          </mxGeometry>
        </mxCell>
        <mxCell id="bfvBG_LsfSfWpUa8G1N8-199" value="" style="html=1;verticalLabelPosition=bottom;align=center;labelBackgroundColor=#ffffff;verticalAlign=top;strokeWidth=2;strokeColor=#0080F0;shadow=0;dashed=0;shape=mxgraph.ios7.icons.compose;" parent="bfvBG_LsfSfWpUa8G1N8-82" vertex="1">
          <mxGeometry x="190" y="10" width="20" height="22.1" as="geometry" />
        </mxCell>
        <mxCell id="bfvBG_LsfSfWpUa8G1N8-84" value="Client 02 Name" style="strokeColor=inherit;fillColor=inherit;gradientColor=inherit;fontColor=inherit;html=1;shadow=0;dashed=0;perimeter=none;whiteSpace=wrap;resizeWidth=1;align=left;spacing=10;" parent="bfvBG_LsfSfWpUa8G1N8-81" vertex="1">
          <mxGeometry width="219.99999999999997" height="40" relative="1" as="geometry">
            <mxPoint y="40" as="offset" />
          </mxGeometry>
        </mxCell>
        <mxCell id="bfvBG_LsfSfWpUa8G1N8-85" value="2" style="strokeColor=inherit;fillColor=inherit;gradientColor=inherit;fontColor=inherit;html=1;shadow=0;dashed=0;shape=mxgraph.bootstrap.rrect;rSize=8;fillColor=#0085FC;strokeColor=none;fontColor=#ffffff;whiteSpace=wrap;" parent="bfvBG_LsfSfWpUa8G1N8-84" vertex="1">
          <mxGeometry x="1" y="0.5" width="20" height="16" relative="1" as="geometry">
            <mxPoint x="-66" y="-8" as="offset" />
          </mxGeometry>
        </mxCell>
        <mxCell id="bfvBG_LsfSfWpUa8G1N8-202" value="" style="html=1;verticalLabelPosition=bottom;align=center;labelBackgroundColor=#ffffff;verticalAlign=top;strokeWidth=2;strokeColor=#0080F0;shadow=0;dashed=0;shape=mxgraph.ios7.icons.compose;" parent="bfvBG_LsfSfWpUa8G1N8-84" vertex="1">
          <mxGeometry x="190" y="8.949999999999989" width="20" height="22.1" as="geometry" />
        </mxCell>
        <mxCell id="bfvBG_LsfSfWpUa8G1N8-86" value="Client 03 Name" style="strokeColor=inherit;fillColor=inherit;gradientColor=inherit;fontColor=inherit;html=1;shadow=0;dashed=0;shape=mxgraph.bootstrap.bottomButton;rSize=5;perimeter=none;whiteSpace=wrap;resizeWidth=1;resizeHeight=0;align=left;spacing=10;" parent="bfvBG_LsfSfWpUa8G1N8-81" vertex="1">
          <mxGeometry y="1" width="219.99999999999997" height="40" relative="1" as="geometry">
            <mxPoint y="-40" as="offset" />
          </mxGeometry>
        </mxCell>
        <mxCell id="bfvBG_LsfSfWpUa8G1N8-87" value="1" style="strokeColor=inherit;fillColor=inherit;gradientColor=inherit;fontColor=inherit;html=1;shadow=0;dashed=0;shape=mxgraph.bootstrap.rrect;rSize=8;fillColor=#0085FC;strokeColor=none;fontColor=#ffffff;whiteSpace=wrap;" parent="bfvBG_LsfSfWpUa8G1N8-86" vertex="1">
          <mxGeometry x="1" y="0.5" width="20" height="16" relative="1" as="geometry">
            <mxPoint x="-66" y="-9" as="offset" />
          </mxGeometry>
        </mxCell>
        <mxCell id="bfvBG_LsfSfWpUa8G1N8-203" value="" style="html=1;verticalLabelPosition=bottom;align=center;labelBackgroundColor=#ffffff;verticalAlign=top;strokeWidth=2;strokeColor=#0080F0;shadow=0;dashed=0;shape=mxgraph.ios7.icons.compose;" parent="bfvBG_LsfSfWpUa8G1N8-86" vertex="1">
          <mxGeometry x="190" y="8" width="20" height="22.1" as="geometry" />
        </mxCell>
        <mxCell id="bfvBG_LsfSfWpUa8G1N8-89" value="" style="verticalLabelPosition=bottom;sketch=0;aspect=fixed;html=1;verticalAlign=top;strokeColor=none;align=center;outlineConnect=0;shape=mxgraph.citrix.citrix_logo;fillColor=#4E4F53;" parent="1" vertex="1">
          <mxGeometry x="254" y="260" width="204.8" height="80" as="geometry" />
        </mxCell>
        <mxCell id="bfvBG_LsfSfWpUa8G1N8-93" value="" style="rounded=0;whiteSpace=wrap;html=1;fillColor=#0d1117;" parent="1" vertex="1">
          <mxGeometry x="490" y="220" width="500" height="164.27" as="geometry" />
        </mxCell>
        <mxCell id="bfvBG_LsfSfWpUa8G1N8-106" value="Generate" style="rounded=1;fillColor=#0057D8;strokeColor=none;html=1;whiteSpace=wrap;fontColor=#ffffff;align=center;verticalAlign=middle;fontStyle=0;fontSize=12;sketch=0;" parent="1" vertex="1">
          <mxGeometry x="520" y="792" width="80" height="33" as="geometry" />
        </mxCell>
        <mxCell id="bfvBG_LsfSfWpUa8G1N8-107" value="Clear" style="rounded=1;fillColor=#0057D8;strokeColor=none;html=1;whiteSpace=wrap;fontColor=#ffffff;align=center;verticalAlign=middle;fontStyle=0;fontSize=12;sketch=0;" parent="1" vertex="1">
          <mxGeometry x="610" y="792" width="80" height="33" as="geometry" />
        </mxCell>
        <mxCell id="bfvBG_LsfSfWpUa8G1N8-108" value="Save" style="rounded=1;fillColor=#0057D8;strokeColor=none;html=1;whiteSpace=wrap;fontColor=#ffffff;align=center;verticalAlign=middle;fontStyle=0;fontSize=12;sketch=0;" parent="1" vertex="1">
          <mxGeometry x="700" y="792" width="80" height="33" as="geometry" />
        </mxCell>
        <mxCell id="bfvBG_LsfSfWpUa8G1N8-111" value="" style="group" parent="1" vertex="1" connectable="0">
          <mxGeometry x="499.9966666666667" y="749.3366666666666" width="12.666666666666686" height="12.666666666666629" as="geometry" />
        </mxCell>
        <mxCell id="bfvBG_LsfSfWpUa8G1N8-96" value="&lt;font color=&quot;#ffffff&quot;&gt;Include Taxes&lt;/font&gt;" style="rounded=1;fillColor=#F0F2F5;strokeColor=#D8DCE3;align=left;verticalAlign=middle;fontStyle=0;fontSize=12;labelPosition=right;verticalLabelPosition=middle;spacingLeft=10;html=1;shadow=0;dashed=0" parent="bfvBG_LsfSfWpUa8G1N8-111" vertex="1">
          <mxGeometry x="0.0033333333332734583" y="0.6633333333334122" width="12" height="12" as="geometry" />
        </mxCell>
        <mxCell id="bfvBG_LsfSfWpUa8G1N8-102" value="" style="dashed=0;labelPosition=right;align=left;shape=mxgraph.gmdl.checkbox;strokeColor=none;fillColor=#B0B0B0;strokeWidth=2;sketch=0;html=1;" parent="bfvBG_LsfSfWpUa8G1N8-111" vertex="1">
          <mxGeometry width="12.666666666666666" height="12.666666666666666" as="geometry" />
        </mxCell>
        <mxCell id="bfvBG_LsfSfWpUa8G1N8-112" value="" style="rounded=0;whiteSpace=wrap;html=1;aspect=fixed;fillColor=#FFFFFF;" parent="1" vertex="1">
          <mxGeometry x="1008.13" y="280" width="393.08" height="561" as="geometry" />
        </mxCell>
        <mxCell id="bfvBG_LsfSfWpUa8G1N8-116" value="" style="html=1;verticalLabelPosition=bottom;align=center;labelBackgroundColor=#ffffff;verticalAlign=top;strokeWidth=2;strokeColor=#0080F0;shadow=0;dashed=0;shape=mxgraph.ios7.icons.add;" parent="1" vertex="1">
          <mxGeometry x="725" y="660" width="30" height="30" as="geometry" />
        </mxCell>
        <mxCell id="bfvBG_LsfSfWpUa8G1N8-117" value="&lt;font style=&quot;font-size: 16px; font-weight: normal;&quot;&gt;Preview&lt;/font&gt;" style="text;html=1;fontSize=24;fontStyle=1;verticalAlign=middle;align=center;fontColor=#FFFFFF;" parent="1" vertex="1">
          <mxGeometry x="1333.2" y="232" width="68.01" height="30" as="geometry" />
        </mxCell>
        <mxCell id="bfvBG_LsfSfWpUa8G1N8-121" value="Client 01 Data" style="text;strokeColor=none;fillColor=none;html=1;fontSize=18;fontStyle=1;verticalAlign=middle;align=center;fontColor=#FFFFFF;" parent="1" vertex="1">
          <mxGeometry x="490" y="224" width="130" height="30" as="geometry" />
        </mxCell>
        <mxCell id="bfvBG_LsfSfWpUa8G1N8-158" value="" style="group" parent="1" vertex="1" connectable="0">
          <mxGeometry x="490" y="390" width="500" height="120" as="geometry" />
        </mxCell>
        <mxCell id="bfvBG_LsfSfWpUa8G1N8-94" value="" style="rounded=0;whiteSpace=wrap;html=1;fillColor=#0d1117;" parent="bfvBG_LsfSfWpUa8G1N8-158" vertex="1">
          <mxGeometry width="500" height="110" as="geometry" />
        </mxCell>
        <mxCell id="bfvBG_LsfSfWpUa8G1N8-120" value="&lt;font style=&quot;font-size: 14px;&quot;&gt;Item 01&lt;/font&gt;" style="text;html=1;strokeColor=none;fillColor=none;align=center;verticalAlign=middle;whiteSpace=wrap;rounded=0;fontColor=#FCFCFC;" parent="bfvBG_LsfSfWpUa8G1N8-158" vertex="1">
          <mxGeometry x="10" y="10.069999999999993" width="60" height="19.86" as="geometry" />
        </mxCell>
        <mxCell id="bfvBG_LsfSfWpUa8G1N8-133" value="&lt;font style=&quot;font-size: 15px;&quot;&gt;Price $&lt;/font&gt;" style="html=1;shadow=0;dashed=0;shape=mxgraph.bootstrap.rrect;rSize=5;strokeColor=#CED4DA;strokeWidth=1;fillColor=#E9ECEF;fontColor=#505050;whiteSpace=wrap;align=left;verticalAlign=middle;spacingLeft=10;fontSize=15;" parent="bfvBG_LsfSfWpUa8G1N8-158" vertex="1">
          <mxGeometry x="400" y="55" width="90" height="30" as="geometry" />
        </mxCell>
        <mxCell id="bfvBG_LsfSfWpUa8G1N8-156" value="" style="html=1;shadow=0;dashed=0;shape=mxgraph.bootstrap.rrect;rSize=5;strokeColor=#CED4DA;html=1;whiteSpace=wrap;fillColor=#FFFFFF;fontColor=#7D868C;align=left;spacing=15;spacingLeft=40;fontSize=14;" parent="bfvBG_LsfSfWpUa8G1N8-158" vertex="1">
          <mxGeometry x="10" y="35" width="380" height="55" as="geometry" />
        </mxCell>
        <mxCell id="bfvBG_LsfSfWpUa8G1N8-157" value="&lt;font style=&quot;font-size: 11px;&quot;&gt;Description&lt;/font&gt;" style="html=1;shadow=0;dashed=0;shape=mxgraph.bootstrap.leftButton;strokeColor=inherit;gradientColor=inherit;fontColor=inherit;fillColor=#E9ECEF;rSize=5;perimeter=none;whiteSpace=wrap;resizeHeight=1;fontSize=14;" parent="bfvBG_LsfSfWpUa8G1N8-156" vertex="1">
          <mxGeometry width="60" height="55" as="geometry" />
        </mxCell>
        <mxCell id="bfvBG_LsfSfWpUa8G1N8-178" value="" style="html=1;shadow=0;dashed=0;shape=mxgraph.bootstrap.rrect;rSize=5;strokeColor=#CED4DA;html=1;whiteSpace=wrap;fillColor=#FFFFFF;fontColor=#7D868C;align=left;spacing=15;spacingLeft=40;fontSize=14;" parent="1" vertex="1">
          <mxGeometry x="500" y="286" width="200" height="20" as="geometry" />
        </mxCell>
        <mxCell id="bfvBG_LsfSfWpUa8G1N8-179" value="&lt;font style=&quot;font-size: 11px;&quot;&gt;Phone&lt;/font&gt;" style="html=1;shadow=0;dashed=0;shape=mxgraph.bootstrap.leftButton;strokeColor=inherit;gradientColor=inherit;fontColor=inherit;fillColor=#E9ECEF;rSize=5;perimeter=none;whiteSpace=wrap;resizeHeight=1;fontSize=14;" parent="bfvBG_LsfSfWpUa8G1N8-178" vertex="1">
          <mxGeometry width="50" height="20" as="geometry" />
        </mxCell>
        <mxCell id="bfvBG_LsfSfWpUa8G1N8-180" value="" style="html=1;shadow=0;dashed=0;shape=mxgraph.bootstrap.rrect;rSize=5;strokeColor=#CED4DA;html=1;whiteSpace=wrap;fillColor=#FFFFFF;fontColor=#7D868C;align=left;spacing=15;spacingLeft=40;fontSize=14;" parent="1" vertex="1">
          <mxGeometry x="500" y="262" width="200" height="20" as="geometry" />
        </mxCell>
        <mxCell id="bfvBG_LsfSfWpUa8G1N8-181" value="&lt;font style=&quot;font-size: 11px;&quot;&gt;Name&lt;/font&gt;" style="html=1;shadow=0;dashed=0;shape=mxgraph.bootstrap.leftButton;strokeColor=inherit;gradientColor=inherit;fontColor=inherit;fillColor=#E9ECEF;rSize=5;perimeter=none;whiteSpace=wrap;resizeHeight=1;fontSize=14;" parent="bfvBG_LsfSfWpUa8G1N8-180" vertex="1">
          <mxGeometry width="50" height="20" as="geometry" />
        </mxCell>
        <mxCell id="bfvBG_LsfSfWpUa8G1N8-182" value="" style="html=1;shadow=0;dashed=0;shape=mxgraph.bootstrap.rrect;rSize=5;strokeColor=#CED4DA;html=1;whiteSpace=wrap;fillColor=#FFFFFF;fontColor=#7D868C;align=left;spacing=15;spacingLeft=40;fontSize=14;" parent="1" vertex="1">
          <mxGeometry x="770" y="286" width="200" height="20" as="geometry" />
        </mxCell>
        <mxCell id="bfvBG_LsfSfWpUa8G1N8-183" value="&lt;font style=&quot;font-size: 11px;&quot;&gt;Email&lt;/font&gt;" style="html=1;shadow=0;dashed=0;shape=mxgraph.bootstrap.leftButton;strokeColor=inherit;gradientColor=inherit;fontColor=inherit;fillColor=#E9ECEF;rSize=5;perimeter=none;whiteSpace=wrap;resizeHeight=1;fontSize=14;" parent="bfvBG_LsfSfWpUa8G1N8-182" vertex="1">
          <mxGeometry width="50" height="20" as="geometry" />
        </mxCell>
        <mxCell id="bfvBG_LsfSfWpUa8G1N8-184" value="" style="html=1;shadow=0;dashed=0;shape=mxgraph.bootstrap.rrect;rSize=5;strokeColor=#CED4DA;html=1;whiteSpace=wrap;fillColor=#FFFFFF;fontColor=#7D868C;align=left;spacing=15;spacingLeft=40;fontSize=14;" parent="1" vertex="1">
          <mxGeometry x="770" y="262" width="200" height="20" as="geometry" />
        </mxCell>
        <mxCell id="bfvBG_LsfSfWpUa8G1N8-185" value="&lt;font style=&quot;font-size: 11px;&quot;&gt;Address&lt;/font&gt;" style="html=1;shadow=0;dashed=0;shape=mxgraph.bootstrap.leftButton;strokeColor=inherit;gradientColor=inherit;fontColor=inherit;fillColor=#E9ECEF;rSize=5;perimeter=none;whiteSpace=wrap;resizeHeight=1;fontSize=14;" parent="bfvBG_LsfSfWpUa8G1N8-184" vertex="1">
          <mxGeometry width="50" height="20" as="geometry" />
        </mxCell>
        <mxCell id="bfvBG_LsfSfWpUa8G1N8-186" value="" style="html=1;shadow=0;dashed=0;shape=mxgraph.bootstrap.rrect;rSize=5;strokeColor=#CED4DA;html=1;whiteSpace=wrap;fillColor=#FFFFFF;fontColor=#7D868C;align=left;spacing=15;spacingLeft=40;fontSize=14;" parent="1" vertex="1">
          <mxGeometry x="500" y="309" width="200" height="20" as="geometry" />
        </mxCell>
        <mxCell id="bfvBG_LsfSfWpUa8G1N8-187" value="&lt;font style=&quot;font-size: 11px;&quot;&gt;City&lt;/font&gt;" style="html=1;shadow=0;dashed=0;shape=mxgraph.bootstrap.leftButton;strokeColor=inherit;gradientColor=inherit;fontColor=inherit;fillColor=#E9ECEF;rSize=5;perimeter=none;whiteSpace=wrap;resizeHeight=1;fontSize=14;" parent="bfvBG_LsfSfWpUa8G1N8-186" vertex="1">
          <mxGeometry width="50" height="20" as="geometry" />
        </mxCell>
        <mxCell id="bfvBG_LsfSfWpUa8G1N8-188" value="" style="html=1;shadow=0;dashed=0;shape=mxgraph.bootstrap.rrect;rSize=5;strokeColor=#CED4DA;html=1;whiteSpace=wrap;fillColor=#FFFFFF;fontColor=#7D868C;align=left;spacing=15;spacingLeft=40;fontSize=14;" parent="1" vertex="1">
          <mxGeometry x="770" y="309" width="200" height="20" as="geometry" />
        </mxCell>
        <mxCell id="bfvBG_LsfSfWpUa8G1N8-189" value="&lt;font style=&quot;font-size: 11px;&quot;&gt;CP&lt;/font&gt;" style="html=1;shadow=0;dashed=0;shape=mxgraph.bootstrap.leftButton;strokeColor=inherit;gradientColor=inherit;fontColor=inherit;fillColor=#E9ECEF;rSize=5;perimeter=none;whiteSpace=wrap;resizeHeight=1;fontSize=14;" parent="bfvBG_LsfSfWpUa8G1N8-188" vertex="1">
          <mxGeometry width="50" height="20" as="geometry" />
        </mxCell>
        <mxCell id="bfvBG_LsfSfWpUa8G1N8-190" value="" style="html=1;shadow=0;dashed=0;shape=mxgraph.bootstrap.rrect;rSize=5;strokeColor=#CED4DA;html=1;whiteSpace=wrap;fillColor=#FFFFFF;fontColor=#7D868C;align=left;spacing=15;spacingLeft=40;fontSize=14;" parent="1" vertex="1">
          <mxGeometry x="500" y="333" width="200" height="20" as="geometry" />
        </mxCell>
        <mxCell id="bfvBG_LsfSfWpUa8G1N8-191" value="&lt;span style=&quot;font-size: 11px;&quot;&gt;Budget number&lt;/span&gt;" style="html=1;shadow=0;dashed=0;shape=mxgraph.bootstrap.leftButton;strokeColor=inherit;gradientColor=inherit;fontColor=inherit;fillColor=#E9ECEF;rSize=5;perimeter=none;whiteSpace=wrap;resizeHeight=1;fontSize=14;" parent="bfvBG_LsfSfWpUa8G1N8-190" vertex="1">
          <mxGeometry width="80" height="20" as="geometry" />
        </mxCell>
        <mxCell id="bfvBG_LsfSfWpUa8G1N8-194" value="Add Item button" style="text;html=1;strokeColor=none;fillColor=none;align=center;verticalAlign=middle;whiteSpace=wrap;rounded=0;fontStyle=1;fontSize=13;" parent="1" vertex="1">
          <mxGeometry x="870" y="920" width="120" height="30" as="geometry" />
        </mxCell>
        <mxCell id="bfvBG_LsfSfWpUa8G1N8-195" value="Hamburger Button" style="text;html=1;strokeColor=none;fillColor=none;align=center;verticalAlign=middle;whiteSpace=wrap;rounded=0;fontStyle=1;fontSize=13;" parent="1" vertex="1">
          <mxGeometry x="290" y="120" width="130" height="30" as="geometry" />
        </mxCell>
        <mxCell id="bfvBG_LsfSfWpUa8G1N8-197" value="Add Client" style="rounded=1;fillColor=#0057D8;strokeColor=none;html=1;whiteSpace=wrap;fontColor=#ffffff;align=center;verticalAlign=middle;fontStyle=0;fontSize=12;sketch=0;" parent="1" vertex="1">
          <mxGeometry x="770" y="340" width="80" height="33" as="geometry" />
        </mxCell>
        <mxCell id="bfvBG_LsfSfWpUa8G1N8-204" value="" style="rounded=0;whiteSpace=wrap;html=1;strokeColor=#00CC00;fillColor=#0d1117;" parent="1" vertex="1">
          <mxGeometry x="490" y="505.5" width="500" height="110" as="geometry" />
        </mxCell>
        <mxCell id="bfvBG_LsfSfWpUa8G1N8-205" value="&lt;font style=&quot;font-size: 14px;&quot;&gt;Item 02&lt;/font&gt;" style="text;html=1;strokeColor=none;fillColor=none;align=center;verticalAlign=middle;whiteSpace=wrap;rounded=0;fontColor=#FCFCFC;" parent="1" vertex="1">
          <mxGeometry x="500" y="515.5699999999999" width="60" height="19.86" as="geometry" />
        </mxCell>
        <mxCell id="bfvBG_LsfSfWpUa8G1N8-206" value="&lt;font style=&quot;font-size: 15px;&quot;&gt;Price $&lt;/font&gt;" style="html=1;shadow=0;dashed=0;shape=mxgraph.bootstrap.rrect;rSize=5;strokeColor=#CED4DA;strokeWidth=1;fillColor=#E9ECEF;fontColor=#505050;whiteSpace=wrap;align=left;verticalAlign=middle;spacingLeft=10;fontSize=15;" parent="1" vertex="1">
          <mxGeometry x="890" y="560.5" width="90" height="30" as="geometry" />
        </mxCell>
        <mxCell id="bfvBG_LsfSfWpUa8G1N8-207" value="" style="html=1;shadow=0;dashed=0;shape=mxgraph.bootstrap.rrect;rSize=5;strokeColor=#CED4DA;html=1;whiteSpace=wrap;fillColor=#FFFFFF;fontColor=#7D868C;align=left;spacing=15;spacingLeft=40;fontSize=14;" parent="1" vertex="1">
          <mxGeometry x="500" y="540.5" width="380" height="55" as="geometry" />
        </mxCell>
        <mxCell id="bfvBG_LsfSfWpUa8G1N8-208" value="&lt;font style=&quot;font-size: 11px;&quot;&gt;Description&lt;/font&gt;" style="html=1;shadow=0;dashed=0;shape=mxgraph.bootstrap.leftButton;strokeColor=inherit;gradientColor=inherit;fontColor=inherit;fillColor=#E9ECEF;rSize=5;perimeter=none;whiteSpace=wrap;resizeHeight=1;fontSize=14;" parent="bfvBG_LsfSfWpUa8G1N8-207" vertex="1">
          <mxGeometry width="60" height="55" as="geometry" />
        </mxCell>
        <mxCell id="bfvBG_LsfSfWpUa8G1N8-209" value="LOGO image" style="text;html=1;strokeColor=none;fillColor=none;align=center;verticalAlign=middle;whiteSpace=wrap;rounded=0;fontStyle=1;fontSize=13;" parent="1" vertex="1">
          <mxGeometry x="50" y="300" width="90" height="30" as="geometry" />
        </mxCell>
        <mxCell id="bfvBG_LsfSfWpUa8G1N8-210" value="Client List" style="text;html=1;strokeColor=none;fillColor=none;align=center;verticalAlign=middle;whiteSpace=wrap;rounded=0;fontStyle=1;fontSize=13;" parent="1" vertex="1">
          <mxGeometry x="50" y="427.87" width="90" height="30" as="geometry" />
        </mxCell>
        <mxCell id="bfvBG_LsfSfWpUa8G1N8-211" value="Budget List" style="text;html=1;strokeColor=none;fillColor=none;align=center;verticalAlign=middle;whiteSpace=wrap;rounded=0;fontStyle=1;fontSize=13;" parent="1" vertex="1">
          <mxGeometry x="40" y="702.87" width="90" height="30" as="geometry" />
        </mxCell>
        <mxCell id="bfvBG_LsfSfWpUa8G1N8-212" value="Preview pdf" style="text;html=1;strokeColor=none;fillColor=none;align=center;verticalAlign=middle;whiteSpace=wrap;rounded=0;fontStyle=1;fontSize=13;" parent="1" vertex="1">
          <mxGeometry x="1270" y="920" width="120" height="30" as="geometry" />
        </mxCell>
        <mxCell id="bfvBG_LsfSfWpUa8G1N8-213" value="Buttons" style="text;html=1;strokeColor=none;fillColor=none;align=center;verticalAlign=middle;whiteSpace=wrap;rounded=0;fontStyle=1;fontSize=13;" parent="1" vertex="1">
          <mxGeometry x="640" y="920" width="120" height="30" as="geometry" />
        </mxCell>
        <mxCell id="bfvBG_LsfSfWpUa8G1N8-214" value="Checkbox" style="text;html=1;strokeColor=none;fillColor=none;align=center;verticalAlign=middle;whiteSpace=wrap;rounded=0;fontStyle=1;fontSize=13;" parent="1" vertex="1">
          <mxGeometry x="480" y="910" width="120" height="30" as="geometry" />
        </mxCell>
        <mxCell id="bfvBG_LsfSfWpUa8G1N8-216" value="" style="endArrow=classic;html=1;rounded=0;entryX=0.25;entryY=0;entryDx=0;entryDy=0;exitX=1.064;exitY=0.5;exitDx=0;exitDy=0;exitPerimeter=0;" parent="1" source="bfvBG_LsfSfWpUa8G1N8-116" target="bfvBG_LsfSfWpUa8G1N8-194" edge="1">
          <mxGeometry width="50" height="50" relative="1" as="geometry">
            <mxPoint x="770" y="980" as="sourcePoint" />
            <mxPoint x="820" y="930" as="targetPoint" />
            <Array as="points">
              <mxPoint x="840" y="675" />
            </Array>
          </mxGeometry>
        </mxCell>
        <mxCell id="bfvBG_LsfSfWpUa8G1N8-217" value="" style="endArrow=classic;html=1;rounded=0;entryX=0.5;entryY=0;entryDx=0;entryDy=0;" parent="1" source="bfvBG_LsfSfWpUa8G1N8-96" target="bfvBG_LsfSfWpUa8G1N8-214" edge="1">
          <mxGeometry width="50" height="50" relative="1" as="geometry">
            <mxPoint x="600" y="770" as="sourcePoint" />
            <mxPoint x="650" y="702.87" as="targetPoint" />
            <Array as="points">
              <mxPoint x="506" y="880" />
            </Array>
          </mxGeometry>
        </mxCell>
        <mxCell id="bfvBG_LsfSfWpUa8G1N8-109" value="Send" style="rounded=1;fillColor=#0057D8;strokeColor=none;html=1;whiteSpace=wrap;fontColor=#ffffff;align=center;verticalAlign=middle;fontStyle=0;fontSize=12;sketch=0;" parent="1" vertex="1">
          <mxGeometry x="790" y="792" width="80" height="33" as="geometry" />
        </mxCell>
        <mxCell id="bfvBG_LsfSfWpUa8G1N8-219" value="" style="endArrow=classic;html=1;rounded=0;entryX=0.5;entryY=0;entryDx=0;entryDy=0;" parent="1" target="bfvBG_LsfSfWpUa8G1N8-213" edge="1">
          <mxGeometry width="50" height="50" relative="1" as="geometry">
            <mxPoint x="800" y="820" as="sourcePoint" />
            <mxPoint x="850" y="770" as="targetPoint" />
            <Array as="points">
              <mxPoint x="800" y="880" />
            </Array>
          </mxGeometry>
        </mxCell>
        <mxCell id="bfvBG_LsfSfWpUa8G1N8-220" value="" style="endArrow=classic;html=1;rounded=0;exitX=0.5;exitY=1;exitDx=0;exitDy=0;entryX=0.5;entryY=0;entryDx=0;entryDy=0;" parent="1" source="bfvBG_LsfSfWpUa8G1N8-112" target="bfvBG_LsfSfWpUa8G1N8-212" edge="1">
          <mxGeometry width="50" height="50" relative="1" as="geometry">
            <mxPoint x="770" y="710" as="sourcePoint" />
            <mxPoint x="820" y="660" as="targetPoint" />
            <Array as="points">
              <mxPoint x="1205" y="890" />
            </Array>
          </mxGeometry>
        </mxCell>
        <mxCell id="bfvBG_LsfSfWpUa8G1N8-221" value="" style="endArrow=classic;html=1;rounded=0;exitX=0.003;exitY=0.943;exitDx=0;exitDy=0;exitPerimeter=0;entryX=1;entryY=0.5;entryDx=0;entryDy=0;" parent="1" source="bfvBG_LsfSfWpUa8G1N8-43" target="bfvBG_LsfSfWpUa8G1N8-211" edge="1">
          <mxGeometry width="50" height="50" relative="1" as="geometry">
            <mxPoint x="300" y="615.5" as="sourcePoint" />
            <mxPoint x="350" y="565.5" as="targetPoint" />
            <Array as="points">
              <mxPoint x="180" y="763" />
            </Array>
          </mxGeometry>
        </mxCell>
        <mxCell id="bfvBG_LsfSfWpUa8G1N8-222" value="" style="endArrow=classic;html=1;rounded=0;entryX=1;entryY=0.5;entryDx=0;entryDy=0;exitX=0.008;exitY=0.009;exitDx=0;exitDy=0;exitPerimeter=0;" parent="1" source="bfvBG_LsfSfWpUa8G1N8-84" target="bfvBG_LsfSfWpUa8G1N8-210" edge="1">
          <mxGeometry width="50" height="50" relative="1" as="geometry">
            <mxPoint x="770" y="590" as="sourcePoint" />
            <mxPoint x="820" y="540" as="targetPoint" />
            <Array as="points">
              <mxPoint x="190" y="410" />
            </Array>
          </mxGeometry>
        </mxCell>
        <mxCell id="bfvBG_LsfSfWpUa8G1N8-223" value="" style="endArrow=classic;html=1;rounded=0;entryX=1;entryY=0.5;entryDx=0;entryDy=0;" parent="1" source="bfvBG_LsfSfWpUa8G1N8-89" target="bfvBG_LsfSfWpUa8G1N8-209" edge="1">
          <mxGeometry width="50" height="50" relative="1" as="geometry">
            <mxPoint x="770" y="590" as="sourcePoint" />
            <mxPoint x="820" y="540" as="targetPoint" />
            <Array as="points">
              <mxPoint x="190" y="300" />
            </Array>
          </mxGeometry>
        </mxCell>
        <mxCell id="bfvBG_LsfSfWpUa8G1N8-224" value="" style="endArrow=classic;html=1;rounded=0;exitX=0.5;exitY=0;exitDx=0;exitDy=0;entryX=0.5;entryY=1;entryDx=0;entryDy=0;" parent="1" source="bfvBG_LsfSfWpUa8G1N8-12" target="bfvBG_LsfSfWpUa8G1N8-195" edge="1">
          <mxGeometry width="50" height="50" relative="1" as="geometry">
            <mxPoint x="770" y="590" as="sourcePoint" />
            <mxPoint x="820" y="540" as="targetPoint" />
            <Array as="points">
              <mxPoint x="265" y="160" />
            </Array>
          </mxGeometry>
        </mxCell>
        <mxCell id="bfvBG_LsfSfWpUa8G1N8-225" value="" style="endArrow=classic;html=1;rounded=0;exitX=0;exitY=0.5;exitDx=0;exitDy=0;entryX=1;entryY=0.5;entryDx=0;entryDy=0;strokeColor=#009900;" parent="1" source="bfvBG_LsfSfWpUa8G1N8-204" target="bfvBG_LsfSfWpUa8G1N8-226" edge="1">
          <mxGeometry width="50" height="50" relative="1" as="geometry">
            <mxPoint x="770" y="590" as="sourcePoint" />
            <mxPoint x="150" y="561" as="targetPoint" />
          </mxGeometry>
        </mxCell>
        <mxCell id="bfvBG_LsfSfWpUa8G1N8-226" value="Item" style="text;html=1;strokeColor=none;fillColor=none;align=center;verticalAlign=middle;whiteSpace=wrap;rounded=0;fontStyle=1;fontSize=13;" parent="1" vertex="1">
          <mxGeometry x="50" y="545.5" width="90" height="30" as="geometry" />
        </mxCell>
        <mxCell id="ZxFanHAD_YSxqsTvnrbs-1" value="" style="whiteSpace=wrap;html=1;aspect=fixed;fillColor=default;" vertex="1" parent="1">
          <mxGeometry x="230" y="980" width="1920" height="1079.99" as="geometry" />
        </mxCell>
        <mxCell id="ZxFanHAD_YSxqsTvnrbs-2" value="" style="rounded=0;whiteSpace=wrap;html=1;fillColor=default;aspect=fixed;" vertex="1" parent="1">
          <mxGeometry x="1470" y="1033.51" width="680" height="1026.48" as="geometry" />
        </mxCell>
        <mxCell id="ZxFanHAD_YSxqsTvnrbs-3" value="" style="rounded=0;whiteSpace=wrap;html=1;aspect=fixed;fillColor=default;" vertex="1" parent="1">
          <mxGeometry x="1485" y="1082.9199999999998" width="650" height="927.67" as="geometry" />
        </mxCell>
      </root>
    </mxGraphModel>
  </diagram>
</mxfile>
